<svg width="44" height="35" viewBox="0 0 44 35" fill="none" xmlns="http://www.w3.org/2000/svg">
<path d="M22 8.74998C22.605 8.74998 23.1 9.24217 23.1 9.84373V10.9375H24.2C24.805 10.9375 25.3 11.4297 25.3 12.0312C25.3 12.6328 24.805 13.125 24.2 13.125H22C21.395 13.125 20.9 12.6328 20.9 12.0312V9.84373C20.9 9.24217 21.395 8.74998 22 8.74998ZM32.78 6.7033L41.415 8.55174C42.9275 8.94823 44 10.2744 44 11.8125V31.7187C44 33.5303 42.5219 35 40.7 35H3.3C1.47744 35 0 33.5303 0 31.7187V11.8125C0 10.2744 1.07456 8.94823 2.58431 8.55174L11.22 6.7033L20.7763 0.367346C21.4569 -0.122449 22.4812 -0.122449 23.2237 0.367346L32.78 6.7033ZM17.6 35H26.4V28.4375C26.4 26.0244 24.4269 24.0625 22 24.0625C19.5731 24.0625 17.6 26.0244 17.6 28.4375V35ZM6.6 13.125C5.99225 13.125 5.5 13.6172 5.5 14.2187V18.5937C5.5 19.1953 5.99225 19.6875 6.6 19.6875H8.8C9.405 19.6875 9.9 19.1953 9.9 18.5937V14.2187C9.9 13.6172 9.405 13.125 8.8 13.125H6.6ZM34.1 18.5937C34.1 19.1953 34.595 19.6875 35.2 19.6875H37.4C38.005 19.6875 38.5 19.1953 38.5 18.5937V14.2187C38.5 13.6172 38.005 13.125 37.4 13.125H35.2C34.595 13.125 34.1 13.6172 34.1 14.2187V18.5937ZM6.6 21.875C5.99225 21.875 5.5 22.3672 5.5 22.9687V27.3437C5.5 27.9453 5.99225 28.4375 6.6 28.4375H8.8C9.405 28.4375 9.9 27.9453 9.9 27.3437V22.9687C9.9 22.3672 9.405 21.875 8.8 21.875H6.6ZM34.1 27.3437C34.1 27.9453 34.595 28.4375 35.2 28.4375H37.4C38.005 28.4375 38.5 27.9453 38.5 27.3437V22.9687C38.5 22.3672 38.005 21.875 37.4 21.875H35.2C34.595 21.875 34.1 22.3672 34.1 22.9687V27.3437ZM22 6.01561C18.6588 6.01561 15.95 8.70897 15.95 12.0312C15.95 15.3535 18.6588 18.0469 22 18.0469C25.3413 18.0469 28.05 15.3535 28.05 12.0312C28.05 8.70897 25.3413 6.01561 22 6.01561Z" fill="black"/>
</svg>
