<svg width="23" height="20" viewBox="0 0 23 20" fill="none" xmlns="http://www.w3.org/2000/svg">
<path d="M2.3 1.875C2.3 0.839453 3.0723 0 4.025 0H13.225C14.1773 0 14.95 0.839453 14.95 1.875V10H21.85V13.75C22.4861 13.75 23 14.3086 23 15C23 15.6914 22.4861 16.25 21.85 16.25H20.7C20.7 18.3203 19.1547 20 17.25 20C15.313 20 13.8 18.3203 13.8 16.25H9.2C9.2 18.3203 7.65469 20 5.75 20C3.81297 20 2.3 18.3203 2.3 16.25V11.25H7.475C7.79125 11.25 8.05 10.9688 8.05 10.625C8.05 10.2812 7.79125 10 7.475 10H0.575C0.257456 10 0 9.71875 0 9.375C0 9.03125 0.257456 8.75 0.575 8.75H8.625C8.94125 8.75 9.2 8.46875 9.2 8.125C9.2 7.78125 8.94125 7.5 8.625 7.5H1.725C1.40731 7.5 1.15 7.21875 1.15 6.875C1.15 6.53125 1.40731 6.25 1.725 6.25H9.775C10.0912 6.25 10.35 5.96875 10.35 5.625C10.35 5.28125 10.0912 5 9.775 5H0.575C0.257456 5 0 4.71875 0 4.375C0 4.03125 0.257456 3.75 0.575 3.75H2.3V1.875ZM5.75 18.125C6.70234 18.125 7.475 17.2852 7.475 16.25C7.475 15.2148 6.70234 14.375 5.75 14.375C4.79766 14.375 4.025 15.2148 4.025 16.25C4.025 17.2852 4.79766 18.125 5.75 18.125ZM17.25 14.375C16.2977 14.375 15.525 15.2148 15.525 16.25C15.525 17.2852 16.2977 18.125 17.25 18.125C18.2023 18.125 18.975 17.2852 18.975 16.25C18.975 15.2148 18.2023 14.375 17.25 14.375ZM16.772 6.25H14.375V3.75H16.772C17.383 3.75 17.9364 4.01172 18.4 4.48047L21.178 7.5C21.6092 7.96875 21.85 8.60547 21.85 9.26953V11.25H19.55V9.26953L16.772 6.25Z" fill="white" fill-opacity="0.74"/>
</svg>
