<svg width="24" height="21" viewBox="0 0 24 21" fill="none" xmlns="http://www.w3.org/2000/svg">
<path d="M4.02848 1.00124L13.2712 1.00124C14.1055 1.00124 15.795 2.09687 15.795 2.9922L15.795 11.1503C15.795 11.3326 15.6968 11.5009 15.5386 11.589C13.6949 12.6185 12.7625 14.4472 11.789 17.2544L11.789 19.9444C11.789 20.0356 11.765 20.1247 11.7179 20.2028C11.4135 20.7096 10.8867 21 10.2728 21C9.4826 21 8.65136 20.5223 8.04846 19.7271C7.44056 18.9209 6.57326 17.1413 7.28933 14.0226L3.07005 14.0226C2.13065 14.0226 0.000484233 13.0552 0.000484233 11.4648C0.000484233 10.941 0.0625769 10.1418 0.396073 9.67415C0.133683 8.94005 0.0836081 7.74928 0.889808 6.91003C0.82371 5.49593 1.17924 4.4684 1.92936 3.90556C1.94237 3.15845 2.28589 2.24509 2.80466 1.6502C3.1702 1.22557 3.59483 1.00124 4.02848 1.00124ZM14.7915 10.8659L14.7915 2.99421C14.7094 2.72581 13.6939 2.00473 13.2692 2.00473L4.02748 2.00473C3.89528 2.00473 3.72202 2.1179 3.55177 2.31319C3.14717 2.77889 2.86275 3.59911 2.93285 4.10686C2.96189 4.31417 2.85974 4.51447 2.67446 4.61762C1.86125 5.05627 1.83922 6.3492 1.89631 7.08229C1.91133 7.24253 1.84222 7.39976 1.71804 7.50692C0.990958 8.11182 1.21529 9.22147 1.4236 9.53895C1.51274 9.67615 1.52876 9.84941 1.46967 9.99863C1.40758 10.1489 1.27939 10.264 1.11815 10.3001C1.13918 10.3271 0.994964 10.7357 0.994964 11.4698C0.994964 12.284 2.48318 13.0261 3.06204 13.0261H7.92728C8.08452 13.0261 8.23173 13.0982 8.32487 13.2234C8.41801 13.3486 8.45006 13.5109 8.40699 13.6621C7.76604 15.9285 7.92528 17.9194 8.83764 19.1282C9.32436 19.7752 9.89521 20.0035 10.2638 20.0035C10.4831 20.0035 10.6563 19.9324 10.7805 19.7902L10.7805 17.1793C10.7805 17.1212 10.7905 17.0702 10.8076 17.0161C11.8061 14.1288 12.8306 12.0807 14.7915 10.8659Z" fill="black"/>
<path d="M16.5482 -2.29223e-05L22.0483 -2.29223e-05C23.0168 -2.29223e-05 23.805 0.78815 23.805 1.75659L23.805 12.2662C23.805 13.2347 23.0168 14.0218 22.0483 14.0218L16.5482 14.0218C15.5797 14.0218 14.7915 13.2347 14.7915 12.2662L14.7915 1.75659C14.7915 0.78815 15.5797 -2.29223e-05 16.5482 -2.29223e-05ZM22.0483 13.0204C22.465 13.0204 22.8035 12.6818 22.8035 12.2662L22.8035 1.75659C22.8035 1.33997 22.465 1.00147 22.0483 1.00147L16.5482 1.00147C16.1315 1.00147 15.793 1.33997 15.793 1.75659L15.793 12.2662C15.793 12.6818 16.1315 13.0204 16.5482 13.0204L22.0483 13.0204Z" fill="black"/>
</svg>
