<svg width="48" height="48" viewBox="0 0 48 48" fill="none" xmlns="http://www.w3.org/2000/svg">
<g clip-path="url(#clip0_0_110)">
<path d="M34.2017 14.9116L28.4257 20.6631L28.4357 20.672L20.5587 28.5142L13.7907 21.7741L11.5957 23.9594L19.3537 31.6841L19.3467 31.692L20.5367 32.8748L20.5437 32.8698L20.5507 32.8748L21.0817 32.3481L21.0867 32.3531L30.6267 22.8553L36.4037 17.1039L34.2017 14.9116Z" fill="#0A9B18"/>
<path d="M24 0C10.745 0 0 10.6975 0 23.8938C0 37.0902 10.745 47.7876 24 47.7876C37.255 47.7876 48 37.0902 48 23.8938C48 10.6975 37.255 0 24 0ZM24 43.8053C12.954 43.8053 4 34.8909 4 23.8938C4 12.8967 12.954 3.9823 24 3.9823C35.046 3.9823 44 12.8967 44 23.8938C44 34.8909 35.046 43.8053 24 43.8053Z" fill="#0A9B18"/>
</g>
<defs>
<clipPath id="clip0_0_110">
<rect width="48" height="47.7876" fill="white"/>
</clipPath>
</defs>
</svg>
