<svg width="24" height="21" viewBox="0 0 24 21" fill="none" xmlns="http://www.w3.org/2000/svg">
<path d="M19.7765 19.9988H10.5337C9.69948 19.9988 8.00997 18.9031 8.00997 18.0078V9.84966C8.00997 9.66739 8.10811 9.49914 8.26635 9.411C10.1101 8.38147 11.0425 6.55275 12.0159 3.74557V1.05557C12.0159 0.964435 12.04 0.875303 12.087 0.797186C12.3915 0.290432 12.9183 0 13.5322 0C14.3224 0 15.1536 0.477711 15.7565 1.27289C16.3644 2.07909 17.2317 3.85874 16.5156 6.97738H20.7349C21.6743 6.97738 23.8045 7.94482 23.8045 9.53519C23.8045 10.059 23.7424 10.8582 23.4089 11.3259C23.6713 12.0599 23.7213 13.2507 22.9151 14.09C22.9812 15.5041 22.6257 16.5316 21.8756 17.0944C21.8626 17.8416 21.5191 18.7549 21.0003 19.3498C20.6348 19.7744 20.2101 19.9988 19.7765 19.9988ZM9.01346 10.1341V18.0058C9.09558 18.2742 10.1111 18.9953 10.5357 18.9953H19.7775C19.9097 18.9953 20.0829 18.8821 20.2532 18.6868C20.6578 18.2211 20.9422 17.4009 20.8721 16.8931C20.8431 16.6858 20.9452 16.4855 21.1305 16.3824C21.9437 15.9437 21.9657 14.6508 21.9086 13.9177C21.8936 13.7575 21.9627 13.6002 22.0869 13.4931C22.814 12.8882 22.5897 11.7785 22.3814 11.4611C22.2922 11.3239 22.2762 11.1506 22.3353 11.0014C22.3974 10.8511 22.5256 10.736 22.6868 10.6999C22.6658 10.6729 22.81 10.2643 22.81 9.53018C22.81 8.71597 21.3218 7.97387 20.7429 7.97387H15.8777C15.7204 7.97387 15.5732 7.90176 15.4801 7.77657C15.3869 7.65139 15.3549 7.48914 15.398 7.33792C16.0389 5.07155 15.8797 3.08058 14.9673 1.87179C14.4806 1.22482 13.9097 0.996483 13.5412 0.996483C13.3219 0.996483 13.1486 1.06759 13.0244 1.2098V3.82069C13.0244 3.87877 13.0144 3.92985 12.9974 3.98393C11.9989 6.87123 10.9744 8.91927 9.01346 10.1341Z" fill="#0A9B18"/>
<path d="M7.2568 21H1.75661C0.788173 21 0 20.2119 0 19.2434V8.73377C0 7.76533 0.788173 6.97816 1.75661 6.97816H7.2568C8.22524 6.97816 9.01341 7.76533 9.01341 8.73377V19.2434C9.01341 20.2119 8.22524 21 7.2568 21ZM1.75661 7.97965C1.33999 7.97965 1.00149 8.31815 1.00149 8.73377V19.2434C1.00149 19.66 1.33999 19.9985 1.75661 19.9985H7.2568C7.67342 19.9985 8.01192 19.66 8.01192 19.2434V8.73377C8.01192 8.31815 7.67342 7.97965 7.2568 7.97965H1.75661Z" fill="#0A9B18"/>
</svg>
