<svg width="22" height="22" viewBox="0 0 22 22" fill="none" xmlns="http://www.w3.org/2000/svg">
<path d="M11 21C16.5228 21 21 16.5228 21 11C21 5.47715 16.5228 1 11 1C5.47715 1 1 5.47715 1 11C1 16.5228 5.47715 21 11 21Z" stroke="white" stroke-opacity="0.74" stroke-width="2" stroke-miterlimit="10" stroke-linejoin="round"/>
<path d="M17.6663 18.3337C17.6663 14.6517 14.6817 11.667 10.9997 11.667C7.31767 11.667 4.33301 14.6517 4.33301 18.3337" stroke="white" stroke-opacity="0.74" stroke-width="2" stroke-miterlimit="10" stroke-linejoin="round"/>
<path d="M11 11.667C13.2091 11.667 15 9.87613 15 7.66699C15 5.45785 13.2091 3.66699 11 3.66699C8.79086 3.66699 7 5.45785 7 7.66699C7 9.87613 8.79086 11.667 11 11.667Z" stroke="white" stroke-opacity="0.74" stroke-width="2" stroke-miterlimit="10" stroke-linejoin="round"/>
</svg>
