<svg width="19" height="13" viewBox="0 0 19 13" fill="none" xmlns="http://www.w3.org/2000/svg">
<path d="M17.5907 0H1.17271C0.861689 0 0.563405 0.120851 0.343479 0.335966C0.123553 0.551081 0 0.84284 0 1.14706L0 11.8529C0 12.1572 0.123553 12.4489 0.343479 12.664C0.563405 12.8791 0.861689 13 1.17271 13H17.5907C17.9017 13 18.2 12.8791 18.4199 12.664C18.6398 12.4489 18.7634 12.1572 18.7634 11.8529V1.14706C18.7634 0.84284 18.6398 0.551081 18.4199 0.335966C18.2 0.120851 17.9017 0 17.5907 0ZM17.3405 0.764706L9.38169 6.78294L1.42289 0.764706H17.3405ZM0.781808 11.6962V1.24647L6.80564 5.80029L0.781808 11.6962ZM1.33298 12.2353L7.42718 6.27441L9.13933 7.57059C9.20769 7.62206 9.29153 7.64996 9.37779 7.64996C9.46405 7.64996 9.54789 7.62206 9.61624 7.57059L11.3362 6.27441L17.4304 12.2353H1.33298ZM17.9816 11.6962L11.9578 5.80029L17.9816 1.24647V11.6962Z" fill="black"/>
</svg>
