<svg width="43" height="43" viewBox="0 0 43 43" fill="none" xmlns="http://www.w3.org/2000/svg">
<g clip-path="url(#clip0_175_6304)">
<path d="M21.5 0C20.7872 0 20.1037 0.283147 19.5997 0.787151C19.0956 1.29115 18.8125 1.97473 18.8125 2.6875V8.0625C18.8125 8.77527 19.0956 9.45885 19.5997 9.96285C20.1037 10.4669 20.7872 10.75 21.5 10.75C22.2128 10.75 22.8963 10.4669 23.4003 9.96285C23.9044 9.45885 24.1875 8.77527 24.1875 8.0625V2.6875C24.1875 1.97473 23.9044 1.29115 23.4003 0.787151C22.8963 0.283147 22.2128 0 21.5 0ZM21.5 32.25C20.7872 32.25 20.1037 32.5331 19.5997 33.0372C19.0956 33.5412 18.8125 34.2247 18.8125 34.9375V40.3125C18.8125 41.0253 19.0956 41.7088 19.5997 42.2128C20.1037 42.7169 20.7872 43 21.5 43C22.2128 43 22.8963 42.7169 23.4003 42.2128C23.9044 41.7088 24.1875 41.0253 24.1875 40.3125V34.9375C24.1875 34.2247 23.9044 33.5412 23.4003 33.0372C22.8963 32.5331 22.2128 32.25 21.5 32.25ZM32.9004 13.8997L36.7005 10.0969C36.95 9.84742 37.1479 9.55119 37.283 9.22518C37.418 8.89917 37.4875 8.54975 37.4875 8.19687C37.4875 7.844 37.418 7.49458 37.283 7.16857C37.1479 6.84256 36.95 6.54633 36.7005 6.29681C36.451 6.04729 36.1548 5.84936 35.8287 5.71432C35.5027 5.57928 35.1533 5.50978 34.8004 5.50978C34.4476 5.50978 34.0981 5.57928 33.7721 5.71432C33.4461 5.84936 33.1499 6.04729 32.9004 6.29681L29.1003 10.0969C28.596 10.6009 28.3125 11.2845 28.3123 11.9974C28.312 12.7103 28.595 13.3941 29.0989 13.8984C29.6028 14.4027 30.2864 14.6861 30.9994 14.6864C31.7123 14.6866 32.3961 14.4037 32.9004 13.8997ZM10.0969 29.1003L6.29681 32.9004C6.04729 33.1499 5.84936 33.4461 5.71432 33.7721C5.57928 34.0981 5.50978 34.4476 5.50978 34.8004C5.50978 35.1533 5.57928 35.5027 5.71432 35.8287C5.84936 36.1548 6.04729 36.451 6.29681 36.7005C6.54633 36.95 6.84256 37.1479 7.16857 37.283C7.49458 37.418 7.844 37.4875 8.19687 37.4875C8.54975 37.4875 8.89917 37.418 9.22518 37.283C9.55119 37.1479 9.84742 36.95 10.0969 36.7005L13.8971 32.9004C14.401 32.3964 14.6841 31.713 14.6841 31.0003C14.6841 30.2877 14.401 29.6042 13.8971 29.1003C13.3931 28.5963 12.7097 28.3132 11.997 28.3132C11.2843 28.3132 10.6009 28.5963 10.0969 29.1003ZM10.0969 6.29681C9.84742 6.04729 9.55119 5.84936 9.22518 5.71432C8.89917 5.57928 8.54975 5.50978 8.19687 5.50978C7.844 5.50978 7.49458 5.57928 7.16857 5.71432C6.84256 5.84936 6.54633 6.04729 6.29681 6.29681C6.04729 6.54633 5.84936 6.84256 5.71432 7.16857C5.57928 7.49458 5.50978 7.844 5.50978 8.19687C5.50978 8.54975 5.57928 8.89917 5.71432 9.22518C5.84936 9.55119 6.04729 9.84742 6.29681 10.0969L10.0969 13.8997C10.6012 14.4037 11.285 14.6866 11.998 14.6864C12.7109 14.6861 13.3945 14.4027 13.8984 13.8984C14.4023 13.3941 14.6853 12.7103 14.685 11.9974C14.6848 11.2845 14.4013 10.6009 13.8971 10.0969L10.0969 6.29681ZM32.9004 29.1003C32.3964 28.5963 31.713 28.3132 31.0003 28.3132C30.2877 28.3132 29.6042 28.5963 29.1003 29.1003C28.5963 29.6042 28.3132 30.2877 28.3132 31.0003C28.3132 31.713 28.5963 32.3964 29.1003 32.9004L32.9004 36.7005C33.1499 36.95 33.4461 37.1479 33.7721 37.283C34.0981 37.418 34.4476 37.4875 34.8004 37.4875C35.1533 37.4875 35.5027 37.418 35.8287 37.283C36.1548 37.1479 36.451 36.95 36.7005 36.7005C36.95 36.451 37.1479 36.1548 37.283 35.8287C37.418 35.5027 37.4875 35.1533 37.4875 34.8004C37.4875 34.4476 37.418 34.0981 37.283 33.7721C37.1479 33.4461 36.95 33.1499 36.7005 32.9004L32.9004 29.1003ZM40.3125 18.8125H34.9375C34.2247 18.8125 33.5412 19.0956 33.0372 19.5997C32.5331 20.1037 32.25 20.7872 32.25 21.5C32.25 22.2128 32.5331 22.8963 33.0372 23.4003C33.5412 23.9044 34.2247 24.1875 34.9375 24.1875H40.3125C41.0253 24.1875 41.7088 23.9044 42.2128 23.4003C42.7169 22.8963 43 22.2128 43 21.5C43 20.7872 42.7169 20.1037 42.2128 19.5997C41.7088 19.0956 41.0253 18.8125 40.3125 18.8125ZM10.75 21.5C10.75 20.7872 10.4669 20.1037 9.96285 19.5997C9.45885 19.0956 8.77527 18.8125 8.0625 18.8125H2.6875C1.97473 18.8125 1.29115 19.0956 0.787151 19.5997C0.283147 20.1037 0 20.7872 0 21.5C0 22.2128 0.283147 22.8963 0.787151 23.4003C1.29115 23.9044 1.97473 24.1875 2.6875 24.1875H8.0625C8.77527 24.1875 9.45885 23.9044 9.96285 23.4003C10.4669 22.8963 10.75 22.2128 10.75 21.5Z" fill="white"/>
</g>
<defs>
<clipPath id="clip0_175_6304">
<rect width="43" height="43" fill="white"/>
</clipPath>
</defs>
</svg>
