<svg width="23" height="20" viewBox="0 0 23 20" fill="none" xmlns="http://www.w3.org/2000/svg">
<path d="M5.30987 7.78928L2.83424 10.6285L1.84058 9.60279C1.41944 9.16786 0.737304 9.16786 0.315939 9.60279C-0.105425 10.0377 -0.105201 10.7422 0.315939 11.1774L2.1128 13.0331C2.31495 13.2451 2.59032 13.3611 2.83469 13.3611C2.84453 13.3611 2.85293 13.3611 2.86277 13.3604C3.00911 13.3565 3.15317 13.322 3.28616 13.2588C3.41915 13.1956 3.53829 13.1051 3.63632 12.9928L6.87068 9.28138C7.26935 8.82399 7.23283 8.12016 6.79071 7.70818C6.38799 7.29751 5.70968 7.33462 5.30987 7.78928ZM5.30987 0.368203L2.83424 3.20562L1.84058 2.17986C1.41944 1.74492 0.737304 1.74492 0.315939 2.17986C-0.105425 2.6148 -0.105201 3.31928 0.315939 3.75445L2.1128 5.61018C2.31495 5.8222 2.59032 5.93818 2.83469 5.93818C2.84453 5.93818 2.85293 5.93818 2.86277 5.93744C3.00911 5.93361 3.15317 5.89905 3.28616 5.83587C3.41915 5.77268 3.53829 5.68219 3.63632 5.56991L6.87068 1.85845C7.26935 1.40106 7.23283 0.697224 6.79071 0.285252C6.38799 -0.124958 5.70968 -0.0887712 5.30987 0.368203ZM2.15638 15.5462C0.965506 15.5462 0.000140378 16.5432 0.000140378 17.7731C0.000140378 19.003 0.965506 20 2.15638 20C3.34725 20 4.31261 19.003 4.31261 17.7731C4.31261 16.5855 3.34725 15.5462 2.15638 15.5462ZM11.5001 4.4536H21.5625C22.3563 4.4536 23 3.78878 23 2.96901C23 2.14924 22.3563 1.48443 21.5625 1.48443H11.5001C10.705 1.48443 10.0626 2.14924 10.0626 2.96901C10.0626 3.78878 10.705 4.4536 11.5001 4.4536ZM21.5625 8.90736H11.5001C10.705 8.90736 10.0626 9.57078 10.0626 10.3919C10.0626 11.2131 10.7063 11.8765 11.5001 11.8765H21.5625C22.3563 11.8765 23 11.2117 23 10.3919C23 9.57217 22.3576 8.90736 21.5625 8.90736ZM21.5625 16.3303H8.62509C7.83132 16.3303 7.1876 16.9951 7.1876 17.8149C7.1876 18.6346 7.83132 19.2995 8.62509 19.2995H21.5625C22.3563 19.2995 23 18.6346 23 17.8149C23 16.9951 22.3576 16.3303 21.5625 16.3303Z" fill="white" fill-opacity="0.74"/>
</svg>
