<svg width="38" height="23" viewBox="0 0 38 23" fill="none" xmlns="http://www.w3.org/2000/svg">
<path d="M17.9908 7.19785C18.5489 6.72974 19.4514 6.72974 19.9561 7.19785L24.7062 11.2246C25.3118 11.6978 25.3118 12.4629 24.7062 12.8907C24.2015 13.4041 23.299 13.4041 22.7409 12.8907L20.4252 10.9679V17.7178C20.4252 18.3872 19.7899 18.9258 19.0002 18.9258C18.2105 18.9258 17.5752 18.3872 17.5752 17.7178V10.9679L15.2061 12.8907C14.7014 13.4041 13.7989 13.4041 13.2408 12.8907C12.6886 12.4629 12.6886 11.6978 13.2408 11.2246L17.9908 7.19785ZM8.55008 22.5499C3.82794 22.5499 0 19.3033 0 15.3017C0 12.1457 2.37918 9.41761 5.70006 8.46628V8.45622C5.70006 3.78516 10.1651 0 15.6752 0C18.6974 0 21.399 1.13756 23.2337 2.93501C24.1184 2.60129 25.0921 2.41606 26.1253 2.41606C30.0619 2.41606 33.2503 5.11903 33.2503 8.45622C33.2503 8.78843 33.2206 9.11057 33.1613 9.42768C36.0113 10.4847 38.0004 12.9008 38.0004 15.7044C38.0004 19.3486 34.6397 22.3284 30.4003 22.5398V22.5499H8.55008ZM15.6752 2.41606C11.7386 2.41606 8.55008 5.11903 8.55008 8.45622V10.1726L6.59663 10.7464C4.43179 11.4109 2.85003 13.2028 2.85003 15.3017C2.85003 17.9695 5.40199 20.1339 8.55008 20.1339H30.0797L30.2341 20.1238C32.9772 19.9929 35.1503 18.0601 35.1503 15.7044C35.1503 13.8924 33.8678 12.3269 32.0153 11.6424L29.9906 10.8924L30.3469 9.04513C30.3825 8.85386 30.4003 8.65756 30.4003 8.45622C30.4003 6.4529 28.4884 4.83212 26.1253 4.83212C25.5018 4.83212 24.914 4.94286 24.3915 5.1442L22.4558 5.87405L21.0724 4.51502C19.7602 3.22544 17.8305 2.41606 15.6217 2.41606H15.6752Z" fill="#B3B3C3"/>
</svg>
