<svg width="51" height="35" viewBox="0 0 51 35" fill="none" xmlns="http://www.w3.org/2000/svg">
<path d="M37.2298 8.27346L37.6424 8.45082C37.8168 8.52585 37.9982 8.56127 38.1767 8.56127C38.7016 8.56127 39.2011 8.2543 39.4216 7.7416C39.7171 7.05445 39.3995 6.2578 38.7124 5.96241L38.2999 5.78499C37.6126 5.48953 36.8161 5.80706 36.5207 6.49421C36.2251 7.18142 36.5427 7.97801 37.2298 8.27346Z" fill="black"/>
<path d="M49.1296 19.1321V11.3331C49.1296 10.5851 48.5233 9.97869 47.7752 9.97869H24.5648C23.8168 9.97869 23.2104 10.5851 23.2104 11.3331C23.2104 12.0811 23.8168 12.6875 24.5648 12.6875H41.1957L24.5648 19.8375L4.78362 11.3331L24.5648 2.8287L33.4439 6.64596C34.1311 6.94135 34.9276 6.62382 35.2231 5.9366C35.5184 5.24946 35.2008 4.45281 34.5137 4.15742L25.0997 0.110111C24.7582 -0.0367038 24.3713 -0.0367038 24.0298 0.110111L0.81947 10.0888C0.322275 10.3026 0 10.7919 0 11.3331C0 11.8743 0.322275 12.3636 0.81947 12.5773L24.0299 22.5559C24.2006 22.6293 24.3828 22.666 24.5648 22.666C24.7468 22.666 24.929 22.6293 25.0997 22.5559L37.8743 17.0638L37.8745 26.4358C30.42 33.3327 18.7094 33.3327 11.2551 26.4357L11.2551 24.0451C11.2551 23.2971 10.6488 22.6907 9.90075 22.6907C9.15279 22.6907 8.54636 23.2971 8.54636 24.045L8.5463 27.016C8.5463 27.3799 8.69277 27.7285 8.95268 27.9833C13.146 32.0931 18.6904 34.3565 24.5647 34.3565C30.4391 34.3565 35.9836 32.0931 40.1768 27.9834C40.4368 27.7286 40.5833 27.38 40.5833 27.016L40.583 15.8993L46.4208 13.3895V19.132C45.3174 19.6448 44.5501 20.7631 44.5501 22.0578C44.5501 23.3864 45.5418 26.882 47.7751 26.882C50.0084 26.882 51 23.3864 51 22.0578C51.0001 20.7632 50.2329 19.6449 49.1296 19.1321ZM47.7752 23.8071C47.5121 23.2902 47.259 22.4915 47.259 22.0578C47.259 21.7732 47.4906 21.5416 47.7752 21.5416C48.0598 21.5416 48.2913 21.7732 48.2913 22.0578C48.2913 22.4915 48.0381 23.2902 47.7752 23.8071Z" fill="black"/>
<path d="M9.90126 21.2801C10.6493 21.2801 11.2556 20.6737 11.2556 19.9257V19.475C11.2556 18.727 10.6493 18.1206 9.90126 18.1206C9.15323 18.1206 8.54688 18.727 8.54688 19.475V19.9257C8.54688 20.6737 9.15323 21.2801 9.90126 21.2801Z" fill="black"/>
</svg>
