<svg width="234" height="27" viewBox="0 0 234 27" fill="none" xmlns="http://www.w3.org/2000/svg">
<g filter="url(#filter0_d_569_5574)">
<path fill-rule="evenodd" clip-rule="evenodd" d="M16.4394 0.532717L20.418 7.88963C20.5642 8.16753 20.8599 8.36361 21.2064 8.41241L30.1027 9.59214C30.5049 9.66007 30.8316 9.91513 30.9529 10.2559C31.0742 10.5967 30.9705 10.968 30.683 11.2222L24.2456 16.9488C23.9971 17.1733 23.8854 17.4871 23.9445 17.7946L25.4641 25.8807C25.547 26.2283 25.3934 26.5865 25.069 26.8015C24.7447 27.0166 24.3074 27.0502 23.9448 26.8881L15.9877 23.0704C15.6846 22.924 15.3162 22.924 15.0131 23.0704L7.05606 26.8881C6.69343 27.0502 6.25612 27.0166 5.93179 26.8015C5.60746 26.5865 5.45378 26.2283 5.53668 25.8807L7.05634 17.7946C7.11547 17.4871 7.00375 17.1733 6.75518 16.9488L0.317787 11.2222C0.0303053 10.968 -0.0733785 10.5967 0.0479553 10.2559C0.169289 9.91516 0.495977 9.6601 0.898145 9.59217L9.7944 8.41241C10.1409 8.36362 10.4366 8.16754 10.5828 7.88964L14.5614 0.532717C14.7257 0.20889 15.0939 0 15.5004 0C15.9069 0 16.2751 0.20889 16.4394 0.532717Z" fill="#F6AB27"/>
<path fill-rule="evenodd" clip-rule="evenodd" d="M19.4498 6.10292C16.8838 7.29792 14.5144 8.78857 12.4054 10.5346C10.1576 12.4088 8.25076 14.5704 6.75053 16.9448L0.315408 11.2236C0.0279393 10.9693 -0.0754655 10.5978 0.0463619 10.257C0.168189 9.91624 0.495471 9.66154 0.897909 9.5943L9.79178 8.41189C10.1378 8.36183 10.4335 8.16693 10.5828 7.89051L14.5593 0.530681C14.7254 0.2078 15.0938 0 15.5 0C15.9062 0 16.2746 0.2078 16.4407 0.530681L19.4498 6.10292Z" fill="#F4CD1E"/>
</g>
<g filter="url(#filter1_d_569_5574)">
<path fill-rule="evenodd" clip-rule="evenodd" d="M67.4394 0.532717L71.418 7.88963C71.5642 8.16753 71.8599 8.36361 72.2064 8.41241L81.1027 9.59214C81.5049 9.66007 81.8316 9.91513 81.9529 10.2559C82.0742 10.5967 81.9705 10.968 81.683 11.2222L75.2456 16.9488C74.9971 17.1733 74.8854 17.4871 74.9445 17.7946L76.4641 25.8807C76.547 26.2283 76.3934 26.5865 76.069 26.8015C75.7447 27.0166 75.3074 27.0502 74.9448 26.8881L66.9877 23.0704C66.6846 22.924 66.3162 22.924 66.0131 23.0704L58.0561 26.8881C57.6934 27.0502 57.2561 27.0166 56.9318 26.8015C56.6075 26.5865 56.4538 26.2283 56.5367 25.8807L58.0563 17.7946C58.1155 17.4871 58.0037 17.1733 57.7552 16.9488L51.3178 11.2222C51.0303 10.968 50.9266 10.5967 51.048 10.2559C51.1693 9.91516 51.496 9.6601 51.8981 9.59217L60.7944 8.41241C61.1409 8.36362 61.4366 8.16754 61.5828 7.88964L65.5614 0.532717C65.7257 0.20889 66.0939 0 66.5004 0C66.9069 0 67.2751 0.20889 67.4394 0.532717Z" fill="#F6AB27"/>
<path fill-rule="evenodd" clip-rule="evenodd" d="M70.4498 6.10292C67.8838 7.29792 65.5144 8.78857 63.4054 10.5346C61.1576 12.4088 59.2508 14.5704 57.7505 16.9448L51.3154 11.2236C51.0279 10.9693 50.9245 10.5978 51.0464 10.257C51.1682 9.91624 51.4955 9.66154 51.8979 9.5943L60.7918 8.41189C61.1378 8.36183 61.4335 8.16693 61.5828 7.89051L65.5593 0.530681C65.7254 0.2078 66.0938 0 66.5 0C66.9062 0 67.2746 0.2078 67.4407 0.530681L70.4498 6.10292Z" fill="#F4CD1E"/>
</g>
<g filter="url(#filter2_d_569_5574)">
<path fill-rule="evenodd" clip-rule="evenodd" d="M117.909 0.532717L121.759 7.88963C121.901 8.16753 122.187 8.36361 122.522 8.41241L131.132 9.59214C131.521 9.66007 131.837 9.91513 131.954 10.2559C132.072 10.5967 131.971 10.968 131.693 11.2222L125.463 16.9488C125.223 17.1733 125.115 17.4871 125.172 17.7946L126.643 25.8807C126.723 26.2283 126.574 26.5865 126.26 26.8015C125.946 27.0166 125.523 27.0502 125.172 26.8881L117.472 23.0704C117.179 22.924 116.822 22.924 116.529 23.0704L108.828 26.8881C108.477 27.0502 108.054 27.0166 107.74 26.8015C107.427 26.5865 107.278 26.2283 107.358 25.8807L108.829 17.7946C108.886 17.4871 108.778 17.1733 108.537 16.9488L102.307 11.2222C102.029 10.968 101.929 10.5967 102.046 10.2559C102.164 9.91516 102.48 9.6601 102.869 9.59217L111.478 8.41241C111.814 8.36362 112.1 8.16754 112.241 7.88964L116.092 0.532717C116.251 0.20889 116.607 0 117 0C117.394 0 117.75 0.20889 117.909 0.532717Z" fill="#F6AB27"/>
<path fill-rule="evenodd" clip-rule="evenodd" d="M120.822 6.10292C118.339 7.29792 116.046 8.78857 114.005 10.5346C111.83 12.4088 109.984 14.5704 108.533 16.9448L102.305 11.2236C102.027 10.9693 101.927 10.5978 102.045 10.257C102.163 9.91624 102.479 9.66154 102.869 9.5943L111.476 8.41189C111.811 8.36183 112.097 8.16693 112.241 7.89051L116.09 0.530681C116.25 0.2078 116.607 0 117 0C117.393 0 117.749 0.2078 117.91 0.530681L120.822 6.10292Z" fill="#F4CD1E"/>
</g>
<g filter="url(#filter3_d_569_5574)">
<path fill-rule="evenodd" clip-rule="evenodd" d="M168.909 0.532717L172.759 7.88963C172.901 8.16753 173.187 8.36361 173.522 8.41241L182.132 9.59214C182.521 9.66007 182.837 9.91513 182.954 10.2559C183.072 10.5967 182.971 10.968 182.693 11.2222L176.463 16.9488C176.223 17.1733 176.115 17.4871 176.172 17.7946L177.643 25.8807C177.723 26.2283 177.574 26.5865 177.26 26.8015C176.946 27.0166 176.523 27.0502 176.172 26.8881L168.472 23.0704C168.179 22.924 167.822 22.924 167.529 23.0704L159.828 26.8881C159.477 27.0502 159.054 27.0166 158.74 26.8015C158.427 26.5865 158.278 26.2283 158.358 25.8807L159.829 17.7946C159.886 17.4871 159.778 17.1733 159.537 16.9488L153.307 11.2222C153.029 10.968 152.929 10.5967 153.046 10.2559C153.164 9.91516 153.48 9.6601 153.869 9.59217L162.478 8.41241C162.814 8.36362 163.1 8.16754 163.241 7.88964L167.092 0.532717C167.251 0.20889 167.607 0 168 0C168.394 0 168.75 0.20889 168.909 0.532717Z" fill="#F6AB27"/>
<path fill-rule="evenodd" clip-rule="evenodd" d="M171.822 6.10292C169.339 7.29792 167.046 8.78857 165.005 10.5346C162.83 12.4088 160.984 14.5704 159.533 16.9448L153.305 11.2236C153.027 10.9693 152.927 10.5978 153.045 10.257C153.163 9.91624 153.479 9.66154 153.869 9.5943L162.476 8.41189C162.811 8.36183 163.097 8.16693 163.241 7.89051L167.09 0.530681C167.25 0.2078 167.607 0 168 0C168.393 0 168.749 0.2078 168.91 0.530681L171.822 6.10292Z" fill="#F4CD1E"/>
</g>
<defs>
<filter id="filter0_d_569_5574" x="-4.00391" y="0" width="39.0068" height="35" filterUnits="userSpaceOnUse" color-interpolation-filters="sRGB">
<feFlood flood-opacity="0" result="BackgroundImageFix"/>
<feColorMatrix in="SourceAlpha" type="matrix" values="0 0 0 0 0 0 0 0 0 0 0 0 0 0 0 0 0 0 127 0" result="hardAlpha"/>
<feOffset dy="4"/>
<feGaussianBlur stdDeviation="2"/>
<feComposite in2="hardAlpha" operator="out"/>
<feColorMatrix type="matrix" values="0 0 0 0 0 0 0 0 0 0 0 0 0 0 0 0 0 0 0.25 0"/>
<feBlend mode="normal" in2="BackgroundImageFix" result="effect1_dropShadow_569_5574"/>
<feBlend mode="normal" in="SourceGraphic" in2="effect1_dropShadow_569_5574" result="shape"/>
</filter>
<filter id="filter1_d_569_5574" x="46.9961" y="0" width="39.0068" height="35" filterUnits="userSpaceOnUse" color-interpolation-filters="sRGB">
<feFlood flood-opacity="0" result="BackgroundImageFix"/>
<feColorMatrix in="SourceAlpha" type="matrix" values="0 0 0 0 0 0 0 0 0 0 0 0 0 0 0 0 0 0 127 0" result="hardAlpha"/>
<feOffset dy="4"/>
<feGaussianBlur stdDeviation="2"/>
<feComposite in2="hardAlpha" operator="out"/>
<feColorMatrix type="matrix" values="0 0 0 0 0 0 0 0 0 0 0 0 0 0 0 0 0 0 0.25 0"/>
<feBlend mode="normal" in2="BackgroundImageFix" result="effect1_dropShadow_569_5574"/>
<feBlend mode="normal" in="SourceGraphic" in2="effect1_dropShadow_569_5574" result="shape"/>
</filter>
<filter id="filter2_d_569_5574" x="97.9961" y="0" width="38.0068" height="35" filterUnits="userSpaceOnUse" color-interpolation-filters="sRGB">
<feFlood flood-opacity="0" result="BackgroundImageFix"/>
<feColorMatrix in="SourceAlpha" type="matrix" values="0 0 0 0 0 0 0 0 0 0 0 0 0 0 0 0 0 0 127 0" result="hardAlpha"/>
<feOffset dy="4"/>
<feGaussianBlur stdDeviation="2"/>
<feComposite in2="hardAlpha" operator="out"/>
<feColorMatrix type="matrix" values="0 0 0 0 0 0 0 0 0 0 0 0 0 0 0 0 0 0 0.25 0"/>
<feBlend mode="normal" in2="BackgroundImageFix" result="effect1_dropShadow_569_5574"/>
<feBlend mode="normal" in="SourceGraphic" in2="effect1_dropShadow_569_5574" result="shape"/>
</filter>
<filter id="filter3_d_569_5574" x="148.996" y="0" width="38.0068" height="35" filterUnits="userSpaceOnUse" color-interpolation-filters="sRGB">
<feFlood flood-opacity="0" result="BackgroundImageFix"/>
<feColorMatrix in="SourceAlpha" type="matrix" values="0 0 0 0 0 0 0 0 0 0 0 0 0 0 0 0 0 0 127 0" result="hardAlpha"/>
<feOffset dy="4"/>
<feGaussianBlur stdDeviation="2"/>
<feComposite in2="hardAlpha" operator="out"/>
<feColorMatrix type="matrix" values="0 0 0 0 0 0 0 0 0 0 0 0 0 0 0 0 0 0 0.25 0"/>
<feBlend mode="normal" in2="BackgroundImageFix" result="effect1_dropShadow_569_5574"/>
<feBlend mode="normal" in="SourceGraphic" in2="effect1_dropShadow_569_5574" result="shape"/>
</filter>
</defs>
</svg>
