<svg width="17" height="16" viewBox="0 0 17 16" fill="none" xmlns="http://www.w3.org/2000/svg">
<g clip-path="url(#clip0_0_20)">
<path d="M4.51564 7.19667C5.49711 9.08333 7.07495 10.6267 9.00722 11.5867L10.5067 10.1167C10.6941 9.93333 10.9633 9.88 11.1985 9.95333C11.9619 10.2 12.7832 10.3333 13.6317 10.3333C14.01 10.3333 14.3133 10.63 14.3133 11V13.3333C14.3133 13.7033 14.01 14 13.6317 14C7.23172 14 2.04492 8.92667 2.04492 2.66667C2.04492 2.29667 2.35163 2 2.7265 2H5.11201C5.49029 2 5.79359 2.29667 5.79359 2.66667C5.79359 3.49667 5.92991 4.3 6.18209 5.04667C6.25706 5.27667 6.20254 5.54 6.0151 5.72333L4.51564 7.19667Z" fill="black"/>
</g>
<defs>
<clipPath id="clip0_0_20">
<rect width="16.3578" height="16" fill="white"/>
</clipPath>
</defs>
</svg>
