<svg width="258" height="45" viewBox="0 0 258 45" fill="none" xmlns="http://www.w3.org/2000/svg">
<path fill-rule="evenodd" clip-rule="evenodd" d="M149.808 2.00027C149.808 0.895552 150.704 0 151.808 0H181.098C182.203 0 183.099 0.895551 183.099 2.00027V44.474H149.808V2.00027ZM0 39.3988C0 38.2941 0.89555 37.3985 2.00027 37.3985H31.2903C32.395 37.3985 33.2905 38.2941 33.2905 39.3988V44.474H0V39.3988ZM76.9043 26.2801C75.7996 26.2801 74.904 27.1756 74.904 28.2803V44.474H108.195V28.2803C108.195 27.1756 107.299 26.2801 106.194 26.2801H76.9043ZM37.4513 34.3451C37.4513 33.2404 38.3469 32.3449 39.4516 32.3449H68.7416C69.8463 32.3449 70.7418 33.2404 70.7418 34.3451V44.4741H37.4513V34.3451ZM189.26 10.1076C188.155 10.1076 187.26 11.0032 187.26 12.1079V44.474H220.55V12.1079C220.55 11.0032 219.655 10.1076 218.55 10.1076H189.26ZM224.71 22.2158C224.71 21.1111 225.605 20.2155 226.71 20.2155H256C257.105 20.2155 258 21.1111 258 22.2158V44.4741H224.71V22.2158ZM114.356 20.2155C113.251 20.2155 112.355 21.1111 112.355 22.2158V44.4741H145.646V22.2158C145.646 21.1111 144.75 20.2155 143.646 20.2155H114.356Z" fill="#BB86FC"/>
</svg>
